<svg width="106" height="82" viewBox="0 0 106 82" fill="none" xmlns="http://www.w3.org/2000/svg">
<path d="M94.5542 55.4867C94.527 55.7606 94.5111 56.0393 94.5111 56.3223C94.5111 60.5541 97.8267 64.015 102.001 64.2479C102.079 64.2522 102.237 64.2548 102.376 64.2561C102.521 64.2572 102.637 64.3748 102.637 64.5195V73.666C102.637 77.8311 99.2607 81.2076 95.0956 81.2076H10.3485C6.18342 81.2076 2.80695 77.8311 2.80695 73.666V65.2349C2.80695 64.7012 3.20243 64.2542 3.73067 64.1803C4.12486 64.1253 4.50976 64.0413 4.88365 63.9299C8.16536 62.9537 10.5568 59.919 10.5568 56.3225C10.5568 54.3635 9.84788 52.5722 8.67245 51.1906C8.66791 51.1839 8.66122 51.1748 8.65215 51.1679C7.42642 49.7324 5.69469 48.74 3.73326 48.4645C3.20394 48.3901 2.80673 47.9441 2.80673 47.4094V40.227C2.80673 36.062 6.18321 32.6855 10.3483 32.6855H95.0976C99.2616 32.6855 102.637 36.0609 102.637 40.2249V48.1271C102.637 48.2711 102.519 48.389 102.375 48.3888C102.327 48.3888 102.286 48.3888 102.266 48.3892C98.2504 48.4805 94.967 51.5539 94.5542 55.4867Z" fill="#3558D2"/>
<path d="M102.637 40.2243V48.1253C102.637 48.2699 102.521 48.3874 102.376 48.3887C102.233 48.39 102.068 48.3928 101.986 48.3975C98.098 48.6214 94.9575 51.6453 94.5545 55.4866L16.7487 77.8828C12.7447 79.0356 8.56839 76.7233 7.41563 72.7215L4.88365 63.9296C8.16536 62.9534 10.5568 59.9187 10.5568 56.3222C10.5568 54.3632 9.84788 52.5719 8.67245 51.1903C8.66791 51.1836 8.66122 51.1745 8.65215 51.1676C7.42642 49.7321 5.69469 48.7397 3.73326 48.4642C3.20394 48.3897 2.80673 47.9438 2.80673 47.409V40.2267C2.80673 36.0617 6.18321 32.6852 10.3483 32.6852H95.0976C99.2616 32.6852 102.637 36.0606 102.637 40.2243Z" fill="#2A4AB8"/>
<path d="M100.432 47.7186L76.2155 54.6892L73.1026 55.5851L18.9896 71.1603C14.9873 72.3131 10.8101 70.0011 9.65737 65.9988L7.36825 58.046C7.19922 57.4588 7.47921 56.8324 8.03336 56.575C11.5191 54.9553 13.4032 50.996 12.3061 47.1878C11.2119 43.3826 7.51634 41.0302 3.70553 41.5075C3.10043 41.5833 2.52621 41.2258 2.3574 40.6399L0.407196 33.8639C-0.743409 29.8616 1.56644 25.6823 5.56873 24.5317L59.6817 8.95639L62.7946 8.06052L87.0113 1.08996C91.0136 -0.0628015 95.1908 2.24704 96.3435 6.24934L98.4172 13.4535C98.5187 13.806 98.3261 14.1766 97.979 14.2949C97.7694 14.3664 97.5559 14.4432 97.4237 14.5011C93.8329 16.0727 91.8726 20.0985 92.9867 23.9661C94.1425 27.9785 98.1884 30.3764 102.212 29.5453C102.249 29.5378 102.296 29.5268 102.35 29.5136C102.709 29.4255 103.075 29.6356 103.177 29.9911L105.593 38.3862C106.744 42.3887 104.434 46.5659 100.432 47.7186Z" fill="#D3E1F5"/>
<path d="M96.272 6.01909C95.0284 2.15949 90.9371 -0.0411268 87.0124 1.08854L5.56957 24.5302C1.71752 25.639 -0.565772 29.5504 0.295132 33.4108L96.272 6.01909Z" fill="#B3CEEC"/>
<path d="M61.2376 8.50684L74.6589 55.1361L18.9893 71.1596C14.9872 72.3115 10.809 70.001 9.65706 65.9989L7.36815 58.0463C7.19912 57.4592 7.47911 56.8327 8.03326 56.5754C11.5192 54.9555 13.4031 50.9961 12.3069 47.187C11.2113 43.381 7.51603 41.0299 3.70543 41.5061C3.10034 41.5817 2.52611 41.2242 2.35751 40.6383L0.407314 33.8627C-0.744587 29.8606 1.56591 25.6824 5.56798 24.5305L61.2376 8.50684Z" fill="#B7CBD7"/>
<path d="M61.2376 8.50684L5.56818 24.5303C3.13766 25.2336 0.995982 27.2533 0.35678 29.8764C0.0629768 31.0015 0.0258466 32.2074 0.293314 33.4087C0.29353 33.4094 0.29353 33.4102 0.293745 33.4109L63.2353 15.4474L61.2376 8.50684Z" fill="#A4BCCB"/>
<path d="M38.5336 42.1L37.786 55.1547C37.7594 55.6171 38.1979 55.9673 38.643 55.839L42.271 54.7948C42.4998 54.729 42.6766 54.547 42.736 54.3167L46.4065 40.0755L38.5336 42.1Z" fill="#EAF6FF"/>
<path d="M37.3775 38.0838L29.8043 27.424C29.5359 27.0464 29.7212 26.5169 30.1663 26.3887L33.7943 25.3445C34.0231 25.2786 34.2694 25.3387 34.4423 25.5023L45.122 35.6129L37.3775 38.0838Z" fill="#EAF6FF"/>
<path d="M22.1421 42.2274C22.1421 42.2274 46.5215 33.7607 49.422 32.9259C52.3225 32.0911 55.5809 35.0186 55.5809 35.0186C55.5809 35.0186 54.3774 39.2305 51.4769 40.0652C48.5764 40.9 23.4263 46.6895 23.4263 46.6895L20.9308 47.5457C20.6279 47.6495 20.294 47.5254 20.1323 47.2491L17.1286 42.1102C16.8268 41.5938 17.299 40.9702 17.8779 41.1204L22.1421 42.2274Z" fill="#EAF6FF"/>
<path d="M86.9764 14.869L72.9388 18.9095C72.3177 19.0883 71.6692 18.7297 71.4905 18.1087L70.3263 14.0636C70.1475 13.4426 70.5061 12.7941 71.1272 12.6153L85.1648 8.57482C85.7859 8.39608 86.4343 8.75464 86.6131 9.37571L87.7773 13.4207C87.956 14.042 87.5975 14.6903 86.9764 14.869Z" fill="#4340E9"/>
<path d="M63.9099 46.3297L67.0731 57.3196L58.1489 59.8882L54.9857 48.8983C54.7821 48.1909 55.1906 47.4522 55.898 47.2486L62.2604 45.4174C62.9678 45.2138 63.7063 45.6222 63.9099 46.3297Z" fill="#FEE903"/>
<path d="M90.7617 74.4739H75.2799C74.6185 74.4739 74.0825 73.9378 74.0825 73.2764V69.4028C74.0825 68.7413 74.6185 68.2053 75.2799 68.2053H90.7617C91.423 68.2053 91.9592 68.7413 91.9592 69.4028V73.2764C91.9592 73.9378 91.423 74.4739 90.7617 74.4739Z" fill="#FFEFD2"/>
<path d="M76.2152 54.6883L73.1023 55.5842L72.4763 53.406C72.2281 52.5468 72.7246 51.6488 73.5837 51.4027C74.4408 51.1544 75.3409 51.651 75.587 52.5101L76.2152 54.6883Z" fill="#D3E1F5"/>
<path d="M73.4369 45.0389L72.2496 40.9092C72.0013 40.05 71.1033 39.5535 70.2463 39.8018C69.3871 40.0479 68.8906 40.9459 69.1367 41.8051L70.3262 45.9348C70.5291 46.645 71.1767 47.107 71.8804 47.107C72.0294 47.107 72.1805 47.0854 72.3295 47.0422C73.1886 46.7961 73.6852 45.8981 73.4369 45.0389ZM70.0995 33.4378L68.91 29.3082C68.6618 28.449 67.7659 27.9546 66.9067 28.2007C66.0476 28.449 65.551 29.3449 65.7993 30.2041L66.9866 34.3337C67.1917 35.0439 67.8393 35.5059 68.5409 35.5059C68.6898 35.5059 68.841 35.4843 68.9899 35.4411C69.8491 35.195 70.3456 34.297 70.0995 33.4378ZM66.7599 21.8368L65.5705 17.7093C65.3244 16.8501 64.4242 16.3536 63.5672 16.5997C62.708 16.848 62.2115 17.746 62.4597 18.6052L63.647 22.7327C63.8521 23.4429 64.4997 23.9049 65.2035 23.9049C65.3503 23.9049 65.5014 23.8854 65.6503 23.8423C66.5095 23.594 67.006 22.696 66.7599 21.8368Z" fill="#D3E1F5"/>
<path d="M62.3129 12.2412C62.164 12.2844 62.0129 12.3038 61.8639 12.3038C61.1602 12.3038 60.5125 11.8419 60.3096 11.1338L59.6814 8.95563L62.7943 8.05975L63.4203 10.2379C63.6686 11.0971 63.1721 11.993 62.3129 12.2412Z" fill="#D3E1F5"/>
<path d="M86.5205 40.0536C85.8172 40.0536 85.1698 39.5916 84.9656 38.882C84.7182 38.0227 85.2143 37.1257 86.0737 36.8783L94.7749 34.3737C95.6323 34.1264 96.531 34.6222 96.7784 35.4818C97.0258 36.3412 96.5297 37.2382 95.6703 37.4856L86.9691 39.9901C86.8197 40.0331 86.6691 40.0536 86.5205 40.0536Z" fill="#98BCE5"/>
<path d="M88.126 45.6315C87.4227 45.6315 86.7753 45.1696 86.5711 44.4598C86.3237 43.6006 86.8198 42.7034 87.6792 42.456L96.3804 39.9517C97.2381 39.7043 98.1365 40.2002 98.3839 41.0598C98.6313 41.9189 98.1352 42.8161 97.2758 43.0635L88.5746 45.5678C88.425 45.611 88.2741 45.6315 88.126 45.6315Z" fill="#98BCE5"/>
<path d="M17.6515 63.5C16.9482 63.5 16.3008 63.0381 16.0965 62.3285C15.8492 61.4691 16.3452 60.5722 17.2046 60.3248L29.4755 56.7929C30.3332 56.5457 31.2319 57.0413 31.479 57.9009C31.7264 58.7603 31.2304 59.6573 30.371 59.9047L18.1001 63.4366C17.9505 63.4795 17.7998 63.5 17.6515 63.5Z" fill="#596C76"/>
<path d="M66.1551 72.6342H48.9431C48.0487 72.6342 47.324 71.9093 47.324 71.0151C47.324 70.121 48.0487 69.3961 48.9431 69.3961H66.1551C67.0494 69.3961 67.7741 70.121 67.7741 71.0151C67.7741 71.9093 67.0494 72.6342 66.1551 72.6342Z" fill="#60B7FF"/>
</svg>
